<svg width="1200" height="800" viewBox="0 0 1200 800" xmlns="http://www.w3.org/2000/svg">
  <defs>
    <linearGradient id="bg" x1="0" y1="0" x2="1" y2="1">
      <stop offset="0%" stop-color="#041226" />
      <stop offset="50%" stop-color="#071a34" />
      <stop offset="100%" stop-color="#03101f" />
    </linearGradient>
    <linearGradient id="card" x1="0" y1="0" x2="1" y2="1">
      <stop offset="0%" stop-color="#0c203a" />
      <stop offset="100%" stop-color="#07162a" />
    </linearGradient>
    <linearGradient id="heat" x1="0" y1="1" x2="1" y2="0">
      <stop offset="0%" stop-color="#ff7a7a" />
      <stop offset="50%" stop-color="#ffc16a" />
      <stop offset="100%" stop-color="#3bffff" />
    </linearGradient>
  </defs>
  <rect width="1200" height="800" fill="url(#bg)" />
  <rect x="160" y="120" width="880" height="560" rx="36" fill="url(#card)" stroke="#0f2e4d" stroke-width="3" />
  <rect x="220" y="180" width="760" height="360" rx="28" fill="#071020" stroke="#113256" stroke-width="2" />
  <path d="M260 480 C420 300 640 260 860 420" fill="none" stroke="url(#heat)" stroke-width="10" stroke-linecap="round" />
  <g fill="#132d4b" opacity="0.7">
    <rect x="220" y="560" width="200" height="80" rx="18" />
    <rect x="440" y="560" width="200" height="80" rx="18" />
    <rect x="660" y="560" width="200" height="80" rx="18" />
  </g>
  <g fill="#00efff" font-family="'Segoe UI', sans-serif" font-size="20">
    <text x="240" y="610">NRW 12.3%</text>
    <text x="460" y="610">Leaks resolved 38</text>
    <text x="680" y="610">Energy saved 34 MWh</text>
  </g>
  <g fill="#2affff" opacity="0.6">
    <circle cx="360" cy="400" r="12" />
    <circle cx="460" cy="340" r="14" />
    <circle cx="560" cy="320" r="10" />
    <circle cx="680" cy="360" r="11" />
    <circle cx="820" cy="420" r="14" />
  </g>
  <g fill="#fff" font-family="'IRANSans', 'Segoe UI', sans-serif" font-size="22" opacity="0.65">
    <text x="230" y="160">VistaLeak Command Dashboard</text>
  </g>
</svg>
