<svg width="1200" height="800" viewBox="0 0 1200 800" xmlns="http://www.w3.org/2000/svg">
  <defs>
    <linearGradient id="bg" x1="0" y1="0" x2="1" y2="1">
      <stop offset="0%" stop-color="#031020" />
      <stop offset="50%" stop-color="#041b34" />
      <stop offset="100%" stop-color="#021220" />
    </linearGradient>
  </defs>
  <rect width="1200" height="800" fill="url(#bg)" />
  <rect x="220" y="200" width="760" height="400" rx="36" fill="#07172c" stroke="#10375a" stroke-width="3" />
  <g fill="#0c2a44" opacity="0.8">
    <rect x="260" y="240" width="320" height="80" rx="16" />
    <rect x="260" y="340" width="320" height="80" rx="16" />
    <rect x="260" y="440" width="320" height="80" rx="16" />
  </g>
  <g fill="#0c2a44" opacity="0.8">
    <rect x="620" y="240" width="300" height="280" rx="28" />
  </g>
  <g stroke="#41f6ff" stroke-width="4" stroke-linecap="round">
    <path d="M640 480 Q720 360 880 420" fill="none" />
    <circle cx="640" cy="480" r="12" />
    <circle cx="720" cy="360" r="12" />
    <circle cx="880" cy="420" r="12" />
  </g>
  <g fill="#41f6ff" font-family="'Segoe UI', sans-serif" font-size="18">
    <text x="280" y="288">Executive KPI snapshot</text>
    <text x="280" y="388">Energy & NRW savings</text>
    <text x="280" y="488">Dispatch optimisation</text>
    <text x="660" y="300">ROI Projection</text>
    <text x="660" y="520">+18% EBITDA uplift</text>
  </g>
  <g fill="#fff" font-family="'Vazirmatn','IRANSans','Segoe UI',sans-serif" font-size="22" opacity="0.65">
    <text x="240" y="180">VistaLeak Executive Insights</text>
  </g>
</svg>
