<svg width="1600" height="900" viewBox="0 0 1600 900" xmlns="http://www.w3.org/2000/svg">
  <defs>
    <linearGradient id="bg" x1="0" y1="0" x2="1" y2="1">
      <stop offset="0%" stop-color="#041027" />
      <stop offset="50%" stop-color="#061a3a" />
      <stop offset="100%" stop-color="#041836" />
    </linearGradient>
    <radialGradient id="glow" cx="0.5" cy="0.4" r="0.6">
      <stop offset="0%" stop-color="#2ed6ff" stop-opacity="0.6" />
      <stop offset="60%" stop-color="#2ed6ff" stop-opacity="0.08" />
      <stop offset="100%" stop-color="#2ed6ff" stop-opacity="0" />
    </radialGradient>
    <linearGradient id="pipe" x1="0" y1="0" x2="1" y2="1">
      <stop offset="0%" stop-color="#3bf6ff" stop-opacity="0.7" />
      <stop offset="100%" stop-color="#37b6ff" stop-opacity="0.2" />
    </linearGradient>
  </defs>
  <rect width="1600" height="900" fill="url(#bg)" />
  <circle cx="1200" cy="260" r="320" fill="url(#glow)" />
  <g stroke="url(#pipe)" stroke-width="6" fill="none" stroke-linecap="round">
    <path d="M180 680 H1420" opacity="0.3" />
    <path d="M280 560 H1320" opacity="0.4" />
    <path d="M260 340 Q520 220 760 360 T1320 380" opacity="0.55" />
    <path d="M240 440 Q520 520 720 420 T1320 520" opacity="0.45" />
    <path d="M480 780 Q760 660 1040 780" opacity="0.35" />
  </g>
  <g stroke="#0ef" stroke-width="2" opacity="0.25">
    <line x1="200" y1="120" x2="1400" y2="120" />
    <line x1="200" y1="220" x2="1400" y2="220" />
    <line x1="200" y1="320" x2="1400" y2="320" />
    <line x1="200" y1="420" x2="1400" y2="420" />
    <line x1="200" y1="520" x2="1400" y2="520" />
    <line x1="200" y1="620" x2="1400" y2="620" />
  </g>
  <g fill="#62f2ff">
    <circle cx="260" cy="340" r="10" />
    <circle cx="600" cy="300" r="8" />
    <circle cx="840" cy="360" r="10" />
    <circle cx="1120" cy="400" r="9" />
    <circle cx="1380" cy="360" r="12" />
  </g>
  <g fill="#00ffd5" opacity="0.5">
    <circle cx="520" cy="620" r="14" />
    <circle cx="780" cy="620" r="14" />
    <circle cx="1040" cy="620" r="14" />
  </g>
  <g fill="#fff" font-family="'IRANSans', 'Segoe UI', sans-serif" font-size="22" opacity="0.6">
    <text x="240" y="200">Digital Twin Nodes</text>
    <text x="980" y="520">AI Leak Detection</text>
  </g>
</svg>
