<svg width="1600" height="900" viewBox="0 0 1600 900" xmlns="http://www.w3.org/2000/svg">
  <defs>
    <linearGradient id="bg" x1="0" y1="0" x2="1" y2="1">
      <stop offset="0%" stop-color="#050912" />
      <stop offset="50%" stop-color="#0a1634" />
      <stop offset="100%" stop-color="#051021" />
    </linearGradient>
    <linearGradient id="panel" x1="0" y1="0" x2="1" y2="1">
      <stop offset="0%" stop-color="#00ffe1" stop-opacity="0.8" />
      <stop offset="100%" stop-color="#2d6bff" stop-opacity="0.3" />
    </linearGradient>
  </defs>
  <rect width="1600" height="900" fill="url(#bg)" />
  <g opacity="0.25" stroke="#1e4bb8" stroke-width="2">
    <path d="M140 200 H1460" />
    <path d="M140 360 H1460" />
    <path d="M140 520 H1460" />
    <path d="M140 680 H1460" />
  </g>
  <g opacity="0.25" stroke="#1e4bb8" stroke-width="2">
    <path d="M320 120 V780" />
    <path d="M620 120 V780" />
    <path d="M920 120 V780" />
    <path d="M1220 120 V780" />
  </g>
  <rect x="260" y="220" width="460" height="320" rx="36" fill="#060d21" stroke="#1e3a7a" stroke-width="3" />
  <rect x="880" y="220" width="460" height="320" rx="36" fill="#060d21" stroke="#1e3a7a" stroke-width="3" />
  <rect x="420" y="560" width="760" height="200" rx="40" fill="#060d21" stroke="#1e3a7a" stroke-width="3" />
  <g>
    <path d="M300 300 H680" stroke="url(#panel)" stroke-width="5" stroke-linecap="round" />
    <path d="M300 360 H660" stroke="url(#panel)" stroke-width="5" stroke-linecap="round" opacity="0.7" />
    <path d="M300 420 H620" stroke="url(#panel)" stroke-width="5" stroke-linecap="round" opacity="0.5" />
    <path d="M940 300 Q1040 240 1160 300 T1280 300" stroke="url(#panel)" stroke-width="5" stroke-linecap="round" fill="none" />
    <circle cx="940" cy="300" r="14" fill="#00ffe1" />
    <circle cx="1060" cy="260" r="10" fill="#00ffe1" opacity="0.6" />
    <circle cx="1180" cy="300" r="12" fill="#00ffe1" />
    <circle cx="1280" cy="300" r="14" fill="#00ffe1" opacity="0.6" />
    <path d="M960 380 H1300" stroke="url(#panel)" stroke-width="5" stroke-linecap="round" opacity="0.8" />
    <path d="M960 440 H1250" stroke="url(#panel)" stroke-width="5" stroke-linecap="round" opacity="0.5" />
  </g>
  <g fill="#00f7ff" opacity="0.7" font-family="'Segoe UI', sans-serif" font-size="20">
    <text x="450" y="620">Real-time control room</text>
    <text x="520" y="660">Multi-utility AI dashboards</text>
  </g>
  <g stroke="#2ef8ff" stroke-width="6" stroke-linecap="round" opacity="0.5">
    <path d="M460 640 H600" />
    <path d="M1000 640 H1140" />
  </g>
  <circle cx="800" cy="720" r="60" fill="#00ffe7" opacity="0.15" />
</svg>
