<svg width="1600" height="900" viewBox="0 0 1600 900" xmlns="http://www.w3.org/2000/svg">
  <defs>
    <linearGradient id="bg" x1="0" y1="1" x2="1" y2="0">
      <stop offset="0%" stop-color="#03111f" />
      <stop offset="40%" stop-color="#041c34" />
      <stop offset="100%" stop-color="#06223f" />
    </linearGradient>
    <radialGradient id="halo" cx="0.3" cy="0.5" r="0.7">
      <stop offset="0%" stop-color="#00ffd9" stop-opacity="0.5" />
      <stop offset="100%" stop-color="#00ffd9" stop-opacity="0" />
    </radialGradient>
  </defs>
  <rect width="1600" height="900" fill="url(#bg)" />
  <circle cx="480" cy="520" r="360" fill="url(#halo)" />
  <path d="M200 640 Q420 520 640 620 T1200 620" stroke="#00ffe6" stroke-width="6" stroke-linecap="round" stroke-dasharray="8 18" opacity="0.6" fill="none" />
  <g opacity="0.6" fill="#112a46">
    <rect x="260" y="460" width="180" height="220" rx="40" />
    <rect x="560" y="420" width="220" height="260" rx="60" />
    <rect x="920" y="470" width="280" height="230" rx="60" />
  </g>
  <g stroke="#24ffe3" stroke-width="5" stroke-linecap="round" opacity="0.9">
    <path d="M320 520 L330 460 L420 420" />
    <path d="M660 500 L690 430 L780 380" />
    <path d="M1020 520 L1080 460 L1180 420" />
  </g>
  <g fill="#1cf7ff">
    <circle cx="320" cy="520" r="18" />
    <circle cx="660" cy="500" r="18" />
    <circle cx="1020" cy="520" r="18" />
  </g>
  <g fill="#fff" opacity="0.65" font-family="'Segoe UI', sans-serif" font-size="20">
    <text x="260" y="780">AI-assisted field crew</text>
    <text x="640" y="780">Acoustic intelligence</text>
    <text x="980" y="780">Predictive work orders</text>
  </g>
</svg>
