<svg width="1200" height="800" viewBox="0 0 1200 800" xmlns="http://www.w3.org/2000/svg">
  <defs>
    <linearGradient id="bg" x1="0" y1="1" x2="1" y2="0">
      <stop offset="0%" stop-color="#0a0f23" />
      <stop offset="50%" stop-color="#141f3c" />
      <stop offset="100%" stop-color="#0a1329" />
    </linearGradient>
    <linearGradient id="grid" x1="0" y1="0" x2="1" y2="1">
      <stop offset="0%" stop-color="#ff6b6b" />
      <stop offset="50%" stop-color="#ffb86b" />
      <stop offset="100%" stop-color="#37f7ff" />
    </linearGradient>
  </defs>
  <rect width="1200" height="800" fill="url(#bg)" />
  <g stroke="rgba(255,255,255,0.08)">
    <path d="M200 200 V640" />
    <path d="M320 200 V640" />
    <path d="M440 200 V640" />
    <path d="M560 200 V640" />
    <path d="M680 200 V640" />
    <path d="M800 200 V640" />
    <path d="M920 200 V640" />
    <path d="M1040 200 V640" />
    <path d="M200 200 H1040" />
    <path d="M200 280 H1040" />
    <path d="M200 360 H1040" />
    <path d="M200 440 H1040" />
    <path d="M200 520 H1040" />
    <path d="M200 600 H1040" />
    <path d="M200 640 H1040" />
  </g>
  <path d="M220 600 L320 520 L420 540 L520 400 L620 360 L720 440 L820 300 L920 320 L1020 260" stroke="url(#grid)" stroke-width="8" fill="none" stroke-linecap="round" />
  <g fill="#ff7a6b" opacity="0.85">
    <circle cx="320" cy="520" r="16" />
    <circle cx="420" cy="540" r="14" />
    <circle cx="520" cy="400" r="16" />
    <circle cx="620" cy="360" r="16" />
    <circle cx="720" cy="440" r="16" />
    <circle cx="820" cy="300" r="16" />
    <circle cx="920" cy="320" r="16" />
    <circle cx="1020" cy="260" r="16" />
  </g>
  <g fill="#fff" font-family="'IRANSans', 'Segoe UI', sans-serif" font-size="24" opacity="0.7">
    <text x="240" y="180">VistaLeak-Score</text>
    <text x="240" y="220">Risk-driven capital planning</text>
  </g>
</svg>
