<svg width="1200" height="800" viewBox="0 0 1200 800" xmlns="http://www.w3.org/2000/svg">
  <defs>
    <linearGradient id="bg" x1="0" y1="1" x2="1" y2="0">
      <stop offset="0%" stop-color="#061324" />
      <stop offset="50%" stop-color="#0b213a" />
      <stop offset="100%" stop-color="#051628" />
    </linearGradient>
    <radialGradient id="glow" cx="0.2" cy="0.6" r="0.7">
      <stop offset="0%" stop-color="#00f6ff" stop-opacity="0.45" />
      <stop offset="100%" stop-color="#00f6ff" stop-opacity="0" />
    </radialGradient>
  </defs>
  <rect width="1200" height="800" fill="url(#bg)" />
  <circle cx="340" cy="520" r="340" fill="url(#glow)" />
  <g fill="#0c253d" opacity="0.9">
    <rect x="240" y="420" width="200" height="240" rx="40" />
    <rect x="520" y="440" width="220" height="220" rx="46" />
    <rect x="820" y="440" width="200" height="220" rx="46" />
  </g>
  <g stroke="#00f6ff" stroke-width="5" stroke-linecap="round" opacity="0.8">
    <path d="M300 500 L340 420 L420 360" />
    <path d="M600 520 L640 460 L720 380" />
    <path d="M880 520 L920 460 L1000 380" />
  </g>
  <g fill="#00f6ff">
    <circle cx="300" cy="500" r="16" />
    <circle cx="600" cy="520" r="16" />
    <circle cx="880" cy="520" r="16" />
  </g>
  <g fill="#fff" font-family="'Segoe UI', sans-serif" font-size="20" opacity="0.65">
    <text x="240" y="220">Targeted renewal crews</text>
    <text x="240" y="260">AI-assisted work orders</text>
  </g>
</svg>
