<svg width="1200" height="800" viewBox="0 0 1200 800" xmlns="http://www.w3.org/2000/svg">
  <defs>
    <linearGradient id="bg" x1="0" y1="1" x2="1" y2="0">
      <stop offset="0%" stop-color="#050d1f" />
      <stop offset="50%" stop-color="#091a32" />
      <stop offset="100%" stop-color="#041226" />
    </linearGradient>
    <linearGradient id="heat" x1="0" y1="1" x2="1" y2="0">
      <stop offset="0%" stop-color="#ff4f6d" />
      <stop offset="40%" stop-color="#ff914d" />
      <stop offset="80%" stop-color="#ffd46a" />
      <stop offset="100%" stop-color="#5dffec" />
    </linearGradient>
  </defs>
  <rect width="1200" height="800" fill="url(#bg)" />
  <g stroke="rgba(255,255,255,0.08)">
    <path d="M220 180 V620" />
    <path d="M340 180 V620" />
    <path d="M460 180 V620" />
    <path d="M580 180 V620" />
    <path d="M700 180 V620" />
    <path d="M820 180 V620" />
    <path d="M940 180 V620" />
    <path d="M1060 180 V620" />
    <path d="M220 180 H1060" />
    <path d="M220 280 H1060" />
    <path d="M220 380 H1060" />
    <path d="M220 480 H1060" />
    <path d="M220 580 H1060" />
    <path d="M220 620 H1060" />
  </g>
  <path d="M240 560 C340 420 460 340 560 360 C640 380 720 480 800 480 C900 480 960 360 1040 300" stroke="url(#heat)" stroke-width="12" fill="none" stroke-linecap="round" />
  <g fill="#ff4f6d">
    <circle cx="340" cy="420" r="18" />
    <circle cx="460" cy="340" r="18" />
    <circle cx="560" cy="360" r="18" />
    <circle cx="720" cy="480" r="18" />
    <circle cx="900" cy="420" r="18" />
    <circle cx="1040" cy="300" r="18" />
  </g>
  <g fill="#fff" font-family="'Vazirmatn','IRANSans','Segoe UI',sans-serif" font-size="22" opacity="0.7">
    <text x="240" y="150">Risk map — VistaLeak-Score</text>
  </g>
</svg>
