<svg width="1000" height="640" viewBox="0 0 1000 640" xmlns="http://www.w3.org/2000/svg">
  <defs>
    <linearGradient id="bg" x1="0" y1="1" x2="1" y2="0">
      <stop offset="0%" stop-color="#041126" />
      <stop offset="50%" stop-color="#081d36" />
      <stop offset="100%" stop-color="#051528" />
    </linearGradient>
    <radialGradient id="glow" cx="0.5" cy="0.4" r="0.6">
      <stop offset="0%" stop-color="#00fff0" stop-opacity="0.3" />
      <stop offset="100%" stop-color="#00fff0" stop-opacity="0" />
    </radialGradient>
  </defs>
  <rect width="1000" height="640" fill="url(#bg)" />
  <circle cx="520" cy="320" r="260" fill="url(#glow)" />
  <g fill="#0d233a">
    <rect x="240" y="260" width="180" height="220" rx="32" />
    <rect x="440" y="220" width="200" height="260" rx="36" />
    <rect x="660" y="260" width="180" height="220" rx="32" />
  </g>
  <g stroke="#2df6ff" stroke-width="4" stroke-linecap="round" opacity="0.7">
    <path d="M300 320 L320 260 L380 220" />
    <path d="M520 320 L540 260 L600 220" />
    <path d="M720 320 L740 260 L800 220" />
  </g>
  <g fill="#2df6ff">
    <circle cx="300" cy="320" r="14" />
    <circle cx="520" cy="320" r="14" />
    <circle cx="720" cy="320" r="14" />
  </g>
  <g fill="#fff" font-family="'Segoe UI', sans-serif" font-size="20" opacity="0.7">
    <text x="260" y="540">Data science</text>
    <text x="470" y="540">Systems engineering</text>
    <text x="690" y="540">UX & delivery</text>
  </g>
</svg>
