<svg width="1200" height="800" viewBox="0 0 1200 800" xmlns="http://www.w3.org/2000/svg">
  <defs>
    <linearGradient id="bg-solar" x1="0" y1="0" x2="1" y2="1">
      <stop offset="0%" stop-color="#0a0c20" />
      <stop offset="100%" stop-color="#35246b" />
    </linearGradient>
    <linearGradient id="beam" x1="0" y1="0" x2="0" y2="1">
      <stop offset="0%" stop-color="#ffd15c" stop-opacity="0.9" />
      <stop offset="100%" stop-color="#ff8a00" stop-opacity="0.1" />
    </linearGradient>
  </defs>
  <rect width="1200" height="800" fill="url(#bg-solar)" />
  <polygon points="200,780 1000,780 840,460 360,460" fill="#162042" opacity="0.85" />
  <g fill="#2c3d73" stroke="#5d6fe2" stroke-width="2" opacity="0.6">
    <rect x="260" y="500" width="80" height="220" />
    <rect x="360" y="500" width="80" height="220" />
    <rect x="460" y="500" width="80" height="220" />
    <rect x="560" y="500" width="80" height="220" />
    <rect x="660" y="500" width="80" height="220" />
    <rect x="760" y="500" width="80" height="220" />
    <rect x="860" y="500" width="80" height="220" />
  </g>
  <g fill="#ffd46f" opacity="0.4">
    <circle cx="300" cy="240" r="18" />
    <circle cx="420" cy="220" r="12" />
    <circle cx="520" cy="200" r="16" />
  </g>
  <path d="M960 120 L1140 120 L1080 300 Z" fill="url(#beam)" opacity="0.6" />
  <g fill="#ffffff" font-family="'IRANSans','Segoe UI',sans-serif">
    <text x="220" y="230" font-size="40" font-weight="700">Solar Forecasting</text>
    <text x="220" y="280" font-size="24" fill="#c9d7ff">Soiling-aware operations</text>
  </g>
</svg>
