<svg width="1200" height="800" viewBox="0 0 1200 800" fill="none" xmlns="http://www.w3.org/2000/svg">
  <rect width="1200" height="800" rx="48" fill="#0B0F1F"/>
  <defs>
    <linearGradient id="sun" x1="0" y1="0" x2="1200" y2="800" gradientUnits="userSpaceOnUse">
      <stop offset="0" stop-color="#F97316"/>
      <stop offset="1" stop-color="#0F172A"/>
    </linearGradient>
  </defs>
  <rect x="52" y="52" width="1096" height="696" rx="40" fill="url(#sun)"/>
  <g transform="translate(140,140)" font-family="'Vazirmatn','Segoe UI',sans-serif" fill="#FFEDD5">
    <text font-size="38" font-weight="700">پیش‌بینی تولید خورشیدی</text>
    <text y="56" font-size="22" fill="#FED7AA">Radiation • Cloud Cover • Soiling</text>
  </g>
  <g transform="translate(140,240)">
    <rect width="440" height="360" rx="28" fill="#422006" stroke="#FDBA74" stroke-opacity="0.5" stroke-width="2"/>
    <rect x="480" width="360" height="360" rx="28" fill="#7C2D12" stroke="#F97316" stroke-opacity="0.5" stroke-width="2"/>
  </g>
  <g transform="translate(180,280)" font-family="'Fira Code','Vazirmatn','Segoe UI',monospace" font-size="20" fill="#FED7AA">
    <text>GHI forecast     812 W/m²</text>
    <text y="44">cloud cover      18%</text>
    <text y="88">soiling index    0.12</text>
  </g>
  <g transform="translate(560,280)" font-family="'Vazirmatn','Segoe UI',sans-serif" font-size="22" fill="#FFEDD5">
    <text font-weight="600">پنل‌های بحرانی</text>
    <text y="40" fill="#F97316">• ردیف B4: افت ۶٪</text>
    <text y="80" fill="#F97316">• ردیف C1: افت ۴٪</text>
    <text y="120" fill="#FDE68A">شست‌وشو در ۴۸ ساعت آینده</text>
  </g>
  <g transform="translate(140,560)" fill="#FDBA74" opacity="0.8">
    <path d="M0 80C80 20 160 20 240 80C320 140 400 140 480 80" stroke="#FDBA74" stroke-width="8" stroke-linecap="round" fill="none"/>
    <circle cx="80" cy="52" r="10"/>
    <circle cx="240" cy="100" r="10"/>
    <circle cx="400" cy="60" r="10"/>
  </g>
</svg>
