<svg width="1200" height="800" viewBox="0 0 1200 800" xmlns="http://www.w3.org/2000/svg">
  <defs>
    <linearGradient id="bg" x1="0" y1="1" x2="1" y2="0">
      <stop offset="0%" stop-color="#040a1b" />
      <stop offset="50%" stop-color="#061732" />
      <stop offset="100%" stop-color="#031024" />
    </linearGradient>
  </defs>
  <rect width="1200" height="800" fill="url(#bg)" />
  <g stroke="rgba(255,255,255,0.08)">
    <path d="M200 200 L1000 200" />
    <path d="M200 280 L1000 280" />
    <path d="M200 360 L1000 360" />
    <path d="M200 440 L1000 440" />
    <path d="M200 520 L1000 520" />
    <path d="M200 600 L1000 600" />
    <path d="M200 680 L1000 680" />
    <path d="M200 200 L200 680" />
    <path d="M320 200 L320 680" />
    <path d="M440 200 L440 680" />
    <path d="M560 200 L560 680" />
    <path d="M680 200 L680 680" />
    <path d="M800 200 L800 680" />
    <path d="M920 200 L920 680" />
    <path d="M1040 200 L1040 680" />
  </g>
  <g>
    <circle cx="320" cy="360" r="40" fill="#ffcc66" opacity="0.8" />
    <circle cx="520" cy="420" r="32" fill="#ff8c42" opacity="0.7" />
    <circle cx="760" cy="320" r="28" fill="#ffd966" opacity="0.7" />
    <circle cx="900" cy="460" r="36" fill="#ff9b42" opacity="0.7" />
    <circle cx="640" cy="520" r="30" fill="#ffbf5e" opacity="0.6" />
  </g>
  <g fill="#fff" font-family="'Vazirmatn','IRANSans','Segoe UI',sans-serif" font-size="22" opacity="0.65">
    <text x="240" y="160">Night light clusters (VIIRS)</text>
  </g>
</svg>
