<svg width="1200" height="800" viewBox="0 0 1200 800" xmlns="http://www.w3.org/2000/svg">
  <defs>
    <linearGradient id="bg-irrigation" x1="0" y1="0" x2="1" y2="1">
      <stop offset="0%" stop-color="#02120f" />
      <stop offset="100%" stop-color="#064c44" />
    </linearGradient>
    <radialGradient id="field" cx="0.7" cy="0.25" r="0.6">
      <stop offset="0%" stop-color="#00f5b0" stop-opacity="0.5" />
      <stop offset="100%" stop-color="#00f5b0" stop-opacity="0" />
    </radialGradient>
  </defs>
  <rect width="1200" height="800" fill="url(#bg-irrigation)" />
  <circle cx="850" cy="220" r="280" fill="url(#field)" />
  <g stroke="#0dfcc6" stroke-width="4" opacity="0.6">
    <path d="M160 540 Q360 420 560 520 T960 460" fill="none" />
    <path d="M140 600 Q360 520 580 600 T1020 520" fill="none" opacity="0.5" />
  </g>
  <g fill="none" stroke="#93ffd8" stroke-width="2" opacity="0.35">
    <circle cx="320" cy="480" r="120" />
    <circle cx="520" cy="480" r="160" />
    <circle cx="760" cy="480" r="200" />
  </g>
  <g fill="#f5fff7" font-family="'Vazirmatn','IRANSans','Segoe UI',sans-serif">
    <text x="200" y="260" font-size="40" font-weight="700">Smart Irrigation</text>
    <text x="200" y="310" font-size="24" fill="#ccfbe6">Damghan Pistachio Orchards</text>
  </g>
  <g fill="#0dfcc6">
    <rect x="220" y="360" width="20" height="90" rx="8" />
    <rect x="260" y="340" width="20" height="110" rx="8" />
    <rect x="300" y="370" width="20" height="80" rx="8" />
    <rect x="340" y="350" width="20" height="100" rx="8" />
  </g>
</svg>
