<svg width="1200" height="800" viewBox="0 0 1200 800" fill="none" xmlns="http://www.w3.org/2000/svg">
  <rect width="1200" height="800" rx="48" fill="#08120A"/>
  <defs>
    <linearGradient id="irrig" x1="0" y1="0" x2="1200" y2="800" gradientUnits="userSpaceOnUse">
      <stop offset="0" stop-color="#166534"/>
      <stop offset="1" stop-color="#0F172A"/>
    </linearGradient>
  </defs>
  <rect x="52" y="52" width="1096" height="696" rx="40" fill="url(#irrig)"/>
  <g transform="translate(140,140)" font-family="'Vazirmatn','Segoe UI',sans-serif" fill="#DCFCE7">
    <text font-size="38" font-weight="700">داشبورد آبیاری هوشمند پسته</text>
    <text y="56" font-size="22" fill="#BBF7D0">ET • NDVI • Soil Moisture</text>
  </g>
  <g transform="translate(140,240)">
    <rect width="400" height="360" rx="28" fill="#052e16" stroke="#34D399" stroke-opacity="0.5" stroke-width="2"/>
    <rect x="440" width="360" height="360" rx="28" fill="#064e3b" stroke="#22C55E" stroke-opacity="0.5" stroke-width="2"/>
  </g>
  <g transform="translate(180,280)" font-family="'Fira Code','Vazirmatn','Segoe UI',monospace" font-size="20" fill="#A7F3D0">
    <text>ET₀      7.8 mm/day</text>
    <text y="44">NDVI     0.68</text>
    <text y="88">Soil θ   24%</text>
  </g>
  <g transform="translate(560,280)" font-family="'Vazirmatn','Segoe UI',sans-serif" font-size="22" fill="#DCFCE7">
    <text font-weight="600">توصیه قطعه A3</text>
    <text y="40" fill="#BBF7D0">• آبیاری ۶ ساعته</text>
    <text y="80" fill="#FACC15">• صرفه‌جویی ۲۸٪ آب</text>
    <text y="120" fill="#FDE68A">• برنامه بعدی: ۳ روز دیگر</text>
  </g>
  <g transform="translate(860,240)" font-family="'Vazirmatn','Segoe UI',sans-serif" font-size="22" fill="#A7F3D0">
    <text font-weight="600">پایش سلامت</text>
    <text y="44">+۱۲٪ رشد شاخص NDVI</text>
  </g>
  <g transform="translate(140,560)" fill="#34D399" opacity="0.7">
    <path d="M0 60C60 20 120 20 180 60C240 100 300 100 360 60" stroke="#34D399" stroke-width="8" stroke-linecap="round" fill="none"/>
    <circle cx="60" cy="40" r="10"/>
    <circle cx="180" cy="80" r="10"/>
    <circle cx="320" cy="52" r="10"/>
  </g>
</svg>
