<svg width="1200" height="800" viewBox="0 0 1200 800" fill="none" xmlns="http://www.w3.org/2000/svg">
  <rect width="1200" height="800" rx="48" fill="#04121F"/>
  <defs>
    <radialGradient id="dash" cx="0" cy="0" r="1" gradientUnits="userSpaceOnUse" gradientTransform="translate(600 400) scale(520 420)">
      <stop offset="0" stop-color="#0EA5E9" stop-opacity="0.28"/>
      <stop offset="1" stop-color="#020617"/>
    </radialGradient>
  </defs>
  <rect x="52" y="52" width="1096" height="696" rx="40" fill="url(#dash)"/>
  <g transform="translate(140,140)" font-family="'Vazirmatn','Segoe UI',sans-serif" fill="#E0F2FE">
    <text font-size="38" font-weight="700">داشبورد کیفیت هوا و HVAC</text>
    <text y="56" font-size="22" fill="#BAE6FD">Nowcast • Semnan Schools</text>
  </g>
  <g transform="translate(140,220)">
    <rect width="340" height="360" rx="28" fill="#0B4C64" fill-opacity="0.7" stroke="#38BDF8" stroke-opacity="0.5" stroke-width="2"/>
    <rect x="380" width="240" height="360" rx="28" fill="#0F2A52" fill-opacity="0.75" stroke="#3B82F6" stroke-opacity="0.5" stroke-width="2"/>
    <rect x="640" width="280" height="360" rx="28" fill="#0B3A2B" fill-opacity="0.75" stroke="#34D399" stroke-opacity="0.5" stroke-width="2"/>
  </g>
  <g transform="translate(160,260)" font-family="'Fira Code','Vazirmatn','Segoe UI',monospace" font-size="20" fill="#BAE6FD">
    <text>PM2.5 nowcast        78 µg/m³</text>
    <text y="44">Forecast next 2h     65 µg/m³</text>
    <text y="88">Alert threshold      55 µg/m³</text>
  </g>
  <g transform="translate(520,260)" font-family="'Vazirmatn','Segoe UI',sans-serif" font-size="20" fill="#E0F2FE">
    <text font-size="28" font-weight="600">HVAC API</text>
    <text y="48" fill="#BAE6FD">• فن تازه روی ۳۰٪</text>
    <text y="88" fill="#BAE6FD">• فیلتر F7 وضعیت سبز</text>
    <text y="128" fill="#FACC15">• تهویه کلاس‌ها فعال</text>
  </g>
  <g transform="translate(800,260)" font-family="'Vazirmatn','Segoe UI',sans-serif" font-size="20" fill="#CFFAFE">
    <text font-size="28" font-weight="600">صرفه‌جویی انرژی</text>
    <text y="48">۵.۸٪ در هفته جاری</text>
    <text y="96">۲۸۰ kWh صرفه‌جویی</text>
  </g>
  <g transform="translate(800,400)" fill="#22D3EE" opacity="0.6">
    <path d="M0 80C48 32 96 32 144 80C192 128 240 128 288 80" stroke="#22D3EE" stroke-width="6" fill="none" stroke-linecap="round"/>
    <circle cx="48" cy="60" r="8"/>
    <circle cx="196" cy="100" r="8"/>
    <circle cx="272" cy="68" r="8"/>
  </g>
</svg>
