<svg width="1200" height="800" viewBox="0 0 1200 800" fill="none" xmlns="http://www.w3.org/2000/svg">
  <rect width="1200" height="800" rx="48" fill="#0B1018"/>
  <defs>
    <linearGradient id="uas" x1="0" y1="0" x2="1200" y2="800" gradientUnits="userSpaceOnUse">
      <stop offset="0" stop-color="#1E3A8A"/>
      <stop offset="1" stop-color="#111827"/>
    </linearGradient>
  </defs>
  <rect x="52" y="52" width="1096" height="696" rx="40" fill="url(#uas)"/>
  <g transform="translate(140,140)" font-family="'Vazirmatn','Segoe UI',sans-serif" fill="#DBEAFE">
    <text font-size="38" font-weight="700">بازرسی پهپادی صنعتی</text>
    <text y="56" font-size="22" fill="#93C5FD">RGB • IR • CMMS Automation</text>
  </g>
  <g transform="translate(140,240)">
    <rect width="360" height="360" rx="28" fill="#0F172A" stroke="#60A5FA" stroke-opacity="0.5" stroke-width="2"/>
    <rect x="400" width="360" height="360" rx="28" fill="#1E293B" stroke="#38BDF8" stroke-opacity="0.5" stroke-width="2"/>
    <rect x="780" width="240" height="360" rx="28" fill="#101828" stroke="#FACC15" stroke-opacity="0.6" stroke-width="2"/>
  </g>
  <g transform="translate(180,280)" font-family="'Fira Code','Vazirmatn','Segoe UI',monospace" font-size="20" fill="#BFDBFE">
    <text>mission       tank-07</text>
    <text y="44">waypoints    48</text>
    <text y="88">status       ACTIVE</text>
  </g>
  <g transform="translate(560,280)" font-family="'Vazirmatn','Segoe UI',sans-serif" font-size="22" fill="#BFDBFE">
    <text font-weight="600">کشف آنومالی</text>
    <text y="40" fill="#F97316">• نشتی فلنج</text>
    <text y="80" fill="#F97316">• خوردگی سطحی</text>
  </g>
  <g transform="translate(840,280)" font-family="'Vazirmatn','Segoe UI',sans-serif" font-size="22" fill="#FACC15">
    <text font-weight="600">CMMS Ticket</text>
    <text y="40" fill="#FDE68A">#PM-2045</text>
    <text y="80" fill="#FDE68A">SLA: 48h</text>
  </g>
  <g transform="translate(140,560)">
    <path d="M0 60C80 20 160 20 240 60C320 100 400 100 480 60" stroke="#38BDF8" stroke-width="8" stroke-linecap="round" fill="none"/>
    <circle cx="80" cy="40" r="10" fill="#38BDF8"/>
    <circle cx="240" cy="80" r="10" fill="#38BDF8"/>
    <circle cx="400" cy="50" r="10" fill="#38BDF8"/>
  </g>
</svg>
