<svg width="1200" height="800" viewBox="0 0 1200 800" xmlns="http://www.w3.org/2000/svg">
  <defs>
    <linearGradient id="bg-fire" x1="0" y1="0" x2="1" y2="1">
      <stop offset="0%" stop-color="#14040a" />
      <stop offset="100%" stop-color="#37160f" />
    </linearGradient>
    <radialGradient id="glow" cx="0.4" cy="0.3" r="0.6">
      <stop offset="0%" stop-color="#ff5f4c" stop-opacity="0.6" />
      <stop offset="100%" stop-color="#ff5f4c" stop-opacity="0" />
    </radialGradient>
  </defs>
  <rect width="1200" height="800" fill="url(#bg-fire)" />
  <circle cx="520" cy="240" r="320" fill="url(#glow)" />
  <g fill="#ff9c66" opacity="0.25">
    <path d="M200 720 C260 580 320 520 400 520 C480 520 540 600 620 600 C700 600 760 500 840 500 C920 500 980 580 1040 720 Z" />
  </g>
  <g stroke="#ff8a3d" stroke-width="4" opacity="0.5">
    <polyline points="260,560 340,460 420,540 500,420 600,520 700,400 820,520" fill="none" />
  </g>
  <g fill="#ffe6d5" font-family="'Vazirmatn','IRANSans','Segoe UI',sans-serif">
    <text x="240" y="240" font-size="40" font-weight="700">Wildfire Early Warning</text>
    <text x="240" y="288" font-size="24" fill="#ffc9a6">Abr forest · Semnan</text>
  </g>
  <g fill="#ff8a3d">
    <circle cx="360" cy="460" r="12" />
    <circle cx="500" cy="420" r="12" />
    <circle cx="700" cy="400" r="12" />
  </g>
</svg>
